<mxfile host="app.diagrams.net" modified="2024-04-27T07:10:47.320Z" agent="Mozilla/5.0 (Windows NT 10.0; Win64; x64) AppleWebKit/537.36 (KHTML, like Gecko) Chrome/124.0.0.0 Safari/537.36 Edg/124.0.0.0" etag="0pVXOn2e6fRavcg7YKrS" version="24.3.1" type="github" pages="3">
  <diagram id="4OQW0f6qOaS9piTgDNFi" name="查找">
    <mxGraphModel dx="1386" dy="793" grid="1" gridSize="10" guides="1" tooltips="1" connect="1" arrows="1" fold="1" page="1" pageScale="1" pageWidth="827" pageHeight="1169" math="0" shadow="0">
      <root>
        <mxCell id="0" />
        <mxCell id="1" parent="0" />
      </root>
    </mxGraphModel>
  </diagram>
  <diagram name="通讯序列图" id="hv99OOcJfIo_YcWF84YO">
    <mxGraphModel dx="2319" dy="866" grid="1" gridSize="10" guides="1" tooltips="1" connect="1" arrows="1" fold="1" page="1" pageScale="1" pageWidth="827" pageHeight="1169" math="0" shadow="0">
      <root>
        <mxCell id="0" />
        <mxCell id="1" parent="0" />
        <mxCell id="0c2Vupl0Wd5xYANsdsAI-2" style="edgeStyle=orthogonalEdgeStyle;rounded=0;orthogonalLoop=1;jettySize=auto;html=1;exitX=0.5;exitY=1;exitDx=0;exitDy=0;endArrow=none;endFill=0;" edge="1" parent="1" source="QWFTe-OUhCLkAl9HGp8c-1">
          <mxGeometry relative="1" as="geometry">
            <mxPoint x="-40" y="780" as="targetPoint" />
          </mxGeometry>
        </mxCell>
        <mxCell id="QWFTe-OUhCLkAl9HGp8c-1" value="用户Agent 1 client" style="rounded=1;whiteSpace=wrap;html=1;fontStyle=1;fontSize=20;" vertex="1" parent="1">
          <mxGeometry x="-100" y="150" width="120" height="60" as="geometry" />
        </mxCell>
        <mxCell id="QWFTe-OUhCLkAl9HGp8c-2" value="用户Agent 2" style="rounded=1;whiteSpace=wrap;html=1;fontStyle=1;fontSize=20;" vertex="1" parent="1">
          <mxGeometry x="840" y="150" width="120" height="60" as="geometry" />
        </mxCell>
        <mxCell id="QWFTe-OUhCLkAl9HGp8c-3" value="中心式的服务" style="rounded=1;whiteSpace=wrap;html=1;fontStyle=1;fontSize=20;" vertex="1" parent="1">
          <mxGeometry x="360" y="150" width="140" height="60" as="geometry" />
        </mxCell>
        <mxCell id="0c2Vupl0Wd5xYANsdsAI-3" style="edgeStyle=orthogonalEdgeStyle;rounded=0;orthogonalLoop=1;jettySize=auto;html=1;exitX=0.5;exitY=1;exitDx=0;exitDy=0;endArrow=none;endFill=0;" edge="1" parent="1">
          <mxGeometry relative="1" as="geometry">
            <mxPoint x="429.5" y="780" as="targetPoint" />
            <mxPoint x="429.5" y="210" as="sourcePoint" />
          </mxGeometry>
        </mxCell>
        <mxCell id="0c2Vupl0Wd5xYANsdsAI-4" style="edgeStyle=orthogonalEdgeStyle;rounded=0;orthogonalLoop=1;jettySize=auto;html=1;exitX=0.5;exitY=1;exitDx=0;exitDy=0;endArrow=none;endFill=0;" edge="1" parent="1">
          <mxGeometry relative="1" as="geometry">
            <mxPoint x="899.5" y="780" as="targetPoint" />
            <mxPoint x="899.5" y="210" as="sourcePoint" />
          </mxGeometry>
        </mxCell>
        <mxCell id="0c2Vupl0Wd5xYANsdsAI-14" value="用户 1" style="rounded=1;whiteSpace=wrap;html=1;fontStyle=1;fontSize=20;" vertex="1" parent="1">
          <mxGeometry x="-310" y="150" width="120" height="60" as="geometry" />
        </mxCell>
        <mxCell id="0c2Vupl0Wd5xYANsdsAI-15" style="edgeStyle=orthogonalEdgeStyle;rounded=0;orthogonalLoop=1;jettySize=auto;html=1;exitX=0.5;exitY=1;exitDx=0;exitDy=0;endArrow=none;endFill=0;" edge="1" parent="1">
          <mxGeometry relative="1" as="geometry">
            <mxPoint x="-250.62" y="780" as="targetPoint" />
            <mxPoint x="-250.62" y="210" as="sourcePoint" />
          </mxGeometry>
        </mxCell>
        <mxCell id="0c2Vupl0Wd5xYANsdsAI-16" value="" style="endArrow=classic;html=1;rounded=0;" edge="1" parent="1">
          <mxGeometry width="50" height="50" relative="1" as="geometry">
            <mxPoint x="-250" y="251" as="sourcePoint" />
            <mxPoint x="-40" y="251" as="targetPoint" />
          </mxGeometry>
        </mxCell>
        <mxCell id="0c2Vupl0Wd5xYANsdsAI-17" value="Question/need" style="rounded=0;whiteSpace=wrap;html=1;strokeColor=#FFFFFF;" vertex="1" parent="1">
          <mxGeometry x="-200" y="220" width="120" height="24" as="geometry" />
        </mxCell>
        <mxCell id="0c2Vupl0Wd5xYANsdsAI-21" value="用户Agent 1 server" style="rounded=1;whiteSpace=wrap;html=1;fontStyle=1;fontSize=20;" vertex="1" parent="1">
          <mxGeometry x="130" y="150" width="120" height="60" as="geometry" />
        </mxCell>
        <mxCell id="0c2Vupl0Wd5xYANsdsAI-22" style="edgeStyle=orthogonalEdgeStyle;rounded=0;orthogonalLoop=1;jettySize=auto;html=1;exitX=0.5;exitY=1;exitDx=0;exitDy=0;endArrow=none;endFill=0;" edge="1" parent="1">
          <mxGeometry relative="1" as="geometry">
            <mxPoint x="189.47" y="780" as="targetPoint" />
            <mxPoint x="189.47" y="210" as="sourcePoint" />
          </mxGeometry>
        </mxCell>
        <mxCell id="0c2Vupl0Wd5xYANsdsAI-23" value="" style="endArrow=classic;html=1;rounded=0;" edge="1" parent="1">
          <mxGeometry width="50" height="50" relative="1" as="geometry">
            <mxPoint x="-40" y="276" as="sourcePoint" />
            <mxPoint x="190" y="276" as="targetPoint" />
          </mxGeometry>
        </mxCell>
        <mxCell id="0c2Vupl0Wd5xYANsdsAI-24" value="send prompt&amp;nbsp;" style="rounded=0;whiteSpace=wrap;html=1;strokeColor=#FFFFFF;" vertex="1" parent="1">
          <mxGeometry x="10" y="244" width="120" height="24" as="geometry" />
        </mxCell>
        <mxCell id="0c2Vupl0Wd5xYANsdsAI-25" value="用户Agent 2server" style="rounded=1;whiteSpace=wrap;html=1;fontStyle=1;fontSize=20;" vertex="1" parent="1">
          <mxGeometry x="610" y="150" width="120" height="60" as="geometry" />
        </mxCell>
        <mxCell id="0c2Vupl0Wd5xYANsdsAI-26" style="edgeStyle=orthogonalEdgeStyle;rounded=0;orthogonalLoop=1;jettySize=auto;html=1;exitX=0.5;exitY=1;exitDx=0;exitDy=0;endArrow=none;endFill=0;" edge="1" parent="1">
          <mxGeometry relative="1" as="geometry">
            <mxPoint x="669.47" y="780" as="targetPoint" />
            <mxPoint x="669.47" y="210" as="sourcePoint" />
          </mxGeometry>
        </mxCell>
      </root>
    </mxGraphModel>
  </diagram>
  <diagram id="tiykROtfkgM1mpLcAaE0" name="智能体内部">
    <mxGraphModel dx="1386" dy="793" grid="1" gridSize="10" guides="1" tooltips="1" connect="1" arrows="1" fold="1" page="1" pageScale="1" pageWidth="827" pageHeight="1169" math="0" shadow="0">
      <root>
        <mxCell id="0" />
        <mxCell id="1" parent="0" />
      </root>
    </mxGraphModel>
  </diagram>
</mxfile>
